<svg xmlns="http://www.w3.org/2000/svg" width="24" height="27.037" viewBox="0 0 24 27.037">
  <path id="blockchain-icon" d="M7.576,10.531l4.042-2.258V4.029a2.032,2.032,0,0,1-1.2-.7L3.941,7.081a2.057,2.057,0,0,1,.035,1.27Zm2.5-7.785a2.031,2.031,0,1,1,3.809-.015l6.507,3.763c.046-.055.092-.11.143-.161a2.031,2.031,0,1,1,1.7,3.448v7.462a2.03,2.03,0,1,1-1.84,3.3L13.88,24.306a2.031,2.031,0,1,1-3.809-.015L3.6,20.548a2.03,2.03,0,1,1-1.848-3.3V9.779A2.031,2.031,0,1,1,3.606,6.485l6.467-3.739Zm3.468.574a2.023,2.023,0,0,1-1.221.711V8.274l4.033,2.337,3.708-2.143a2,2,0,0,1-.123-.7,2.043,2.043,0,0,1,.117-.68L13.541,3.32Zm8.073,6.447A2.015,2.015,0,0,1,20.532,9.2a1.662,1.662,0,0,1-.119-.13l-3.7,2.139v4.572l3.717,2.145c.033-.037.066-.075.1-.11a2.023,2.023,0,0,1,1.083-.563V9.768ZM20.059,19.949a2.032,2.032,0,0,1,.013-1.417l-3.6-2.075L12.32,18.873v4.135a2.023,2.023,0,0,1,1.221.711l6.518-3.769ZM10.417,23.7a2.032,2.032,0,0,1,1.2-.7V18.853l-4.172-2.42-3.54,2.044a2.039,2.039,0,0,1,.033,1.481ZM2.368,17.254a2.022,2.022,0,0,1,1.1.568c.022.022.042.044.062.066l3.606-2.082V11.081l-3.472-2.1a1.93,1.93,0,0,1-.2.227,2.036,2.036,0,0,1-1.1.568v7.481ZM2.033,9.1l.026,0h.018a1.238,1.238,0,1,0-.044,0ZM12.912,24.07a1.328,1.328,0,1,0,.389.94A1.325,1.325,0,0,0,12.912,24.07Zm0-22.979a1.328,1.328,0,1,0,.389.94,1.325,1.325,0,0,0-.389-.94Zm9.994,17.227a1.328,1.328,0,1,0,.389.94A1.325,1.325,0,0,0,22.906,18.319Zm-19.936,0a1.328,1.328,0,1,0,.389.94,1.325,1.325,0,0,0-.389-.94Zm17.812-9.95a.313.313,0,0,1,.044.062.381.381,0,0,1,.031.068,1.563,1.563,0,0,0,.169.209,1.328,1.328,0,1,0-.389-.94A1.367,1.367,0,0,0,20.783,8.368ZM7.792,15.731a.371.371,0,0,1,.095.194l3.769,2.216V13.766l-3.864-2.3Zm8.265-4.205-3.743,2.242v4.377l3.743-2.211V11.526ZM11.968,8.8,8.315,10.985,11.988,13.2l3.567-2.165Z" transform="translate(0)" fill="#222" fill-rule="evenodd"/>
</svg>
