<svg xmlns="http://www.w3.org/2000/svg" width="24" height="26.724" viewBox="0 0 24 26.724">
  <g id="dice-svgrepo-com-3" transform="translate(-21.599)">
    <g id="Group_18" data-name="Group 18" transform="translate(21.599)">
      <path id="Path_15" data-name="Path 15" d="M189.294,293.647l7.1,2.43,6.213-6.212-7.145-2.382Zm3.2-.379a1.346,1.346,0,0,1-1.368.363c-.38-.175-.383-.622-.007-1a1.346,1.346,0,0,1,1.368-.363C192.862,292.445,192.865,292.891,192.489,293.267Zm2.292.8a1.346,1.346,0,0,1-1.368.363c-.38-.175-.383-.622-.007-1a1.346,1.346,0,0,1,1.368-.363C195.154,293.248,195.157,293.694,194.781,294.07Zm4.62-3.594a1.346,1.346,0,0,1,1.368-.363c.38.175.383.622.007,1a1.346,1.346,0,0,1-1.368.363C199.029,291.3,199.025,290.852,199.4,290.476Zm-2.285-.751a1.346,1.346,0,0,1,1.368-.363c.38.175.383.622.007,1a1.346,1.346,0,0,1-1.368.363C196.744,290.547,196.741,290.1,197.116,289.725Zm-.058,4.1c.38.175.383.622.007,1a1.346,1.346,0,0,1-1.368.363c-.38-.175-.383-.622-.007-1A1.348,1.348,0,0,1,197.059,293.823Zm-.865-5.265c.38.175.383.622.007,1a1.346,1.346,0,0,1-1.368.363c-.38-.175-.383-.622-.007-1A1.347,1.347,0,0,1,196.193,288.559Z" transform="translate(-178.718 -269.353)" fill="#f0f0f0"/>
      <path id="Path_16" data-name="Path 16" d="M262.73,172.2l-2.346-7.039-7.039-2.346,2.346,7.038Zm-5.227-5.519c.263-.263.791-.161,1.18.228s.491.917.228,1.18-.791.161-1.18-.228S257.24,166.945,257.5,166.682Z" transform="translate(-238.73 -152.548)" fill="#f0f0f0"/>
      <path id="Path_17" data-name="Path 17" d="M36.575,0,29.939,3.318l6.636,3.318,6.636-3.318Zm0,3.991c-.55,0-1-.3-1-.673s.446-.673,1-.673,1,.3,1,.673S37.125,3.991,36.575,3.991Z" transform="translate(-29.413)" fill="#f0f0f0"/>
      <path id="Path_18" data-name="Path 18" d="M143.194,72.245c.317-.117.582.068.674.423l3.974-3.974.808.269V63.529L141.913,66.9v7.724l.681-.681a.956.956,0,0,1-.111-.471A1.347,1.347,0,0,1,143.194,72.245ZM147.528,65c.393-.145.711.169.711.7a1.346,1.346,0,0,1-.711,1.224c-.393.145-.711-.169-.711-.7A1.346,1.346,0,0,1,147.528,65ZM145.5,68.478c.393-.145.711.169.711.7A1.346,1.346,0,0,1,145.5,70.4c-.393.145-.711-.169-.711-.7A1.347,1.347,0,0,1,145.5,68.478Zm-3.02-.115a1.346,1.346,0,0,1,.711-1.224c.393-.145.711.169.711.7a1.346,1.346,0,0,1-.711,1.224C142.8,69.208,142.483,68.894,142.483,68.363Z" transform="translate(-134.325 -59.523)" fill="#f0f0f0"/>
      <path id="Path_19" data-name="Path 19" d="M21.6,72.315l6.642,3.253.1-.1V66.9L21.6,63.529Zm5.44-.07a1.346,1.346,0,0,1,.711,1.224c0,.531-.318.845-.711.7a1.346,1.346,0,0,1-.711-1.224C26.328,72.413,26.646,72.1,27.039,72.245ZM24.967,68.37a1.346,1.346,0,0,1,.711,1.224c0,.531-.318.845-.711.7a1.346,1.346,0,0,1-.711-1.224C24.257,68.539,24.575,68.226,24.967,68.37ZM22.836,65a1.346,1.346,0,0,1,.711,1.224c0,.531-.318.845-.711.7a1.346,1.346,0,0,1-.711-1.224C22.125,65.17,22.443,64.856,22.836,65Z" transform="translate(-21.599 -59.523)" fill="#f0f0f0"/>
      <path id="Path_20" data-name="Path 20" d="M147.425,164.639l-6.213,6.212,2.431,7.1,6.164-6.164Zm-2.653,10.969c-.376.376-.823.373-1-.007a1.347,1.347,0,0,1,.363-1.368c.376-.376.823-.373,1,.007A1.348,1.348,0,0,1,144.772,175.608Zm2.073-7.365c-.376.376-.823.373-1-.007a1.346,1.346,0,0,1,.363-1.368c.376-.376.823-.373,1,.007A1.346,1.346,0,0,1,146.845,168.242Z" transform="translate(-133.669 -154.256)" fill="#f0f0f0"/>
    </g>
  </g>
</svg>
