<svg xmlns="http://www.w3.org/2000/svg" width="20" height="19.846" viewBox="0 0 20 19.846">
  <g id="Group_55" data-name="Group 55" transform="translate(-1330.123 -1319.223)">
    <path id="Path_27" data-name="Path 27" d="M1446.432,1393.128a.833.833,0,0,0,.08.455,10.727,10.727,0,0,1,.8,4.082,3.762,3.762,0,0,1-.353,1.587,1.024,1.024,0,0,0-.206.2c-.113.2-.223.26-.39.055a.229.229,0,0,0-.284-.087,7.621,7.621,0,0,0-.344-1.385c-.143-.776-.356-1.538-.428-2.328-.027-.3-.1-.6-.155-.893a10.272,10.272,0,0,0-.144,2.009,8.6,8.6,0,0,0,.252,2.116,1.733,1.733,0,0,0,.574,1.076,16.355,16.355,0,0,1-1.226,2.294c-.184.29-.073.59-.105.883a.582.582,0,0,0,.234.583,1.012,1.012,0,0,1,.351.69c.028.205-.043.272-.253.27-.853-.01-1.705,0-2.558,0-.323,0-.647,0-.97,0a.765.765,0,0,1-.842-.714,7.124,7.124,0,0,1,.015-1.051.6.6,0,0,1,.135-.055,6.567,6.567,0,0,0,2.1-.684c.327-.168.385-.218.46-.347a11.08,11.08,0,0,1-7.149-.046,5.325,5.325,0,0,0,1.45.786,8.556,8.556,0,0,0,1.35.337c-.134.023-.117.129-.129.226a4,4,0,0,1-.205,1.178.539.539,0,0,1-.538.367c-1.214,0-2.429-.007-3.643,0-.233,0-.292-.09-.264-.3a1.118,1.118,0,0,1,.5-.731c.08-.062.16-.109.149-.228a2.6,2.6,0,0,0-.256-1.388c.034-.162.226-.2.275-.351.3.019.341-.263.477-.42a1.45,1.45,0,0,0,.466-.816l.11-.013a2.1,2.1,0,0,0,.753.426,9.618,9.618,0,0,0,2.334.532,7.2,7.2,0,0,0,3.276-.194,3.1,3.1,0,0,0,1.676-1.292,5.626,5.626,0,0,0,.794-3.018,10.4,10.4,0,0,0-.113-2.4,9.431,9.431,0,0,0-.618-1.854,7.58,7.58,0,0,0-1.034-1.692c1.02-.332,1.255-.639,1.3-1.69,0-.1-.02-.216.06-.306.083,0,.116.061.148.123.587,1.141,1.266,2.232,1.758,3.423C1446.182,1392.746,1446.188,1393.013,1446.432,1393.128Zm-2.24-.758a.513.513,0,0,0,.643.185c.208-.093.281-.294.281-.608A1.208,1.208,0,0,1,1444.192,1392.37Zm-.193-.5a.512.512,0,0,0,.569.107.539.539,0,0,0,.325-.422.127.127,0,0,0-.031-.1.106.106,0,0,0-.1.023A1.288,1.288,0,0,1,1444,1391.869Z" transform="translate(-97.796 -65.666)" fill="#4fb4fe"/>
    <path id="Path_28" data-name="Path 28" d="M1339.819,1468.251c-.049.15-.241.188-.275.351a.284.284,0,0,0-.222.043,3.851,3.851,0,0,1-2.311.528,4.084,4.084,0,0,1-3.175-1.581,3.932,3.932,0,0,1-.63-1.587q0-.678.006-1.356a5.8,5.8,0,0,1,.822-1.791c.2-.288.4-.572.6-.858.127-.094.264-.18.294-.355h0c.046-.011.118-.008.133-.036a8.038,8.038,0,0,1,.744-.907l.02-.009.21.019c.2.213.4.136.6-.012a1.594,1.594,0,0,0,.818-.748c.066-.107.1-.239.243-.271l.5.549c.282.341.551.694.85,1.019a4.417,4.417,0,0,0,.663.755c-.013.114.139.162.11.282a.217.217,0,0,0,.053.187,6.962,6.962,0,0,1,.676.939c.035.059.061.125.148.117.074.039.05.113.064.174a.375.375,0,0,0,.055.22,3.544,3.544,0,0,1,.225,2.058c-.063.337-.287.614-.291.961-.153.069-.167.23-.225.357A6.447,6.447,0,0,1,1339.819,1468.251Zm-.25-1.894a9.794,9.794,0,0,0-.706-1.06.614.614,0,0,1,.046-.826,9.042,9.042,0,0,0,.551-.823c.177-.093.227-.289.334-.436.049-.067.074-.248-.082-.257a3.871,3.871,0,0,0-.966.016c-.2.04-.281.3-.4.479s-.169.385-.41.427a.89.89,0,0,0-.292-.352,1.462,1.462,0,0,0-1.125-.631,1.32,1.32,0,0,0-.933-.01,1.514,1.514,0,0,0-.937.648,1.071,1.071,0,0,0-.19,1.047.363.363,0,0,0,.125.284,1.784,1.784,0,0,0,1.209.557c.288.145.647.109.895.355a.335.335,0,0,1-.169.408,1.2,1.2,0,0,1-1.146-.228c-.317-.283-.316-.283-.62.045a.294.294,0,0,0-.174.1c-.291.236-.295.252-.027.5a2.362,2.362,0,0,0,1.148.589,1.82,1.82,0,0,0,1.995-.838c.068-.024.058-.1.088-.143.193-.307.254-.306.453,0,.142.221.281.443.427.661a.359.359,0,0,0,.3.205c.3,0,.607,0,.91,0,.162,0,.191-.077.111-.2a1.06,1.06,0,0,0-.164-.163A.853.853,0,0,0,1339.569,1466.358Z" transform="translate(-2.902 -132.183)" fill="#a6f664"/>
    <path id="Path_29" data-name="Path 29" d="M1451.854,1369.151c-.08.09-.056.2-.06.306-.043,1.051-.278,1.358-1.3,1.69-.107.01-.215.017-.321.03a1.7,1.7,0,0,1-2.013-1.216.96.96,0,0,0-1.851.026,1.621,1.621,0,0,1-1.591,1.208c-.1,0-.2,0-.294.006-.085-.015-.171-.034-.256-.043a1.445,1.445,0,0,1-1.469-1.558.77.77,0,0,0-.091-.449c0-.083,0-.172-.116-.18-.257-.051-.293-.242-.311-.462-.02-.248.172-.257.32-.3.288-.091.582-.164.873-.245.117-.008.233-.016.35-.023a5.438,5.438,0,0,1,3.01.452.981.981,0,0,0,1.035-.019,3.656,3.656,0,0,1,1.429-.412,9.831,9.831,0,0,1,1.936,0c.259.074.521.14.777.223.442.143.5.341.236.74C1452.014,1368.95,1451.876,1368.975,1451.854,1369.151Zm-.809-.73c-.182-.032-.286-.058-.392-.068a5.15,5.15,0,0,0-1.691.033c-.385.092-.485.219-.549.609a2.546,2.546,0,0,0,.123,1.1.884.884,0,0,0,.47.54.187.187,0,0,0,.135.028c.075-.035.026-.1.01-.153a3.26,3.26,0,0,1-.129-1.221.584.584,0,0,1,.466-.565A9.654,9.654,0,0,1,1451.046,1368.421Zm-5.443,0a6.419,6.419,0,0,0-1.722-.094c-.6.032-.812.26-.814.854a3.3,3.3,0,0,0,.009.411,1.237,1.237,0,0,0,.544,1.02c.05.03.1.078.161.047.094-.048.023-.122.011-.18a4.211,4.211,0,0,1-.133-1.044.669.669,0,0,1,.595-.749A9.7,9.7,0,0,1,1445.6,1368.424Z" transform="translate(-105.458 -45.817)" fill="#191a1c"/>
    <path id="Path_30" data-name="Path 30" d="M1470.215,1322.142a9.833,9.833,0,0,0-1.937,0,3.655,3.655,0,0,0-1.429.412.98.98,0,0,1-1.035.019,5.439,5.439,0,0,0-3.01-.452l-.35.023a9.178,9.178,0,0,1,3.786-2.89.526.526,0,0,1,.4.026,6.94,6.94,0,0,1,2.322,1.409,9.622,9.622,0,0,1,1.128,1.2A.442.442,0,0,1,1470.215,1322.142Z" transform="translate(-124.536)" fill="#4fb4fe"/>
    <path id="Path_31" data-name="Path 31" d="M1419.743,1389a.769.769,0,0,1,.091.449A1.446,1.446,0,0,0,1421.3,1391c.086.009.171.028.257.043-.126.03-.25,0-.363.137a7.7,7.7,0,0,0-1.6,3.156,4.981,4.981,0,0,1-.2,1.144,4.417,4.417,0,0,1-.663-.755c-.3-.325-.568-.678-.85-1.019.1,0,.135-.042.148-.137.031-.219.063-.439.112-.655s0-.311-.234-.272c.256-.048.342-.221.4-.461a11.794,11.794,0,0,1,1.194-2.949C1419.592,1389.162,1419.716,1389.128,1419.743,1389Zm-.09,3.242a1.307,1.307,0,0,1-.965-.316C1418.833,1392.585,1419.124,1392.686,1419.653,1392.239Zm-.728-.892a.551.551,0,0,0,.266.516.645.645,0,0,0,.64-.144A1.586,1.586,0,0,1,1418.926,1391.347Z" transform="translate(-82.59 -65.663)" fill="#4fb4fd"/>
    <path id="Path_32" data-name="Path 32" d="M1606.371,1385.361c.021-.176.159-.2.3-.228a12.254,12.254,0,0,1,1.886,1.177,4.232,4.232,0,0,1,1.407,1.8,2.735,2.735,0,0,1,.093.309c.085.368.078.375-.294.461a2.183,2.183,0,0,0-1.148.606c-.244-.116-.251-.382-.333-.582-.492-1.191-1.171-2.283-1.758-3.423C1606.487,1385.422,1606.454,1385.361,1606.371,1385.361Z" transform="translate(-259.974 -62.027)" fill="#2391ec"/>
    <path id="Path_33" data-name="Path 33" d="M1371.841,1402.029c-.409-.594-.708-1.25-1.058-1.877-.076-.136-.025-.193.128-.192q1.545,0,3.09,0c.175,0,.253.068.168.229-.439.839-.886,1.674-1.331,2.509-.009.016-.029.025-.045.038l-.123-.127c.009-.169-.105-.254-.225-.34A1.942,1.942,0,0,0,1371.841,1402.029Z" transform="translate(-38.232 -75.981)" fill="#a7f664"/>
    <path id="Path_34" data-name="Path 34" d="M1374.927,1440.164l-.21-.019a1.8,1.8,0,0,1,.642-2.294c.369-.048.56.249.816.421a.416.416,0,0,0,.23.286l.125.177c.02.132-.088.283.058.4-.147.032-.177.164-.243.271a1.6,1.6,0,0,1-.818.748Z" transform="translate(-41.799 -111.635)" fill="#4fb4fd"/>
    <path id="Path_35" data-name="Path 35" d="M1470.534,1607.976a8.561,8.561,0,0,1-1.35-.337,5.325,5.325,0,0,1-1.45-.786,11.081,11.081,0,0,0,7.149.047c-.076.129-.134.179-.461.347a6.569,6.569,0,0,1-2.1.684.593.593,0,0,0-.135.055A6.524,6.524,0,0,1,1470.534,1607.976Z" transform="translate(-129.504 -270.684)" fill="#2692ea"/>
    <path id="Path_36" data-name="Path 36" d="M1620.868,1492.92a1.733,1.733,0,0,1-.574-1.076,8.6,8.6,0,0,1-.252-2.116,10.272,10.272,0,0,1,.144-2.009c.053.3.127.593.155.893.072.79.285,1.552.428,2.328a7.608,7.608,0,0,1,.344,1.385.186.186,0,0,0-.055.185A1.534,1.534,0,0,1,1620.868,1492.92Z" transform="translate(-272.834 -158.571)" fill="#2492eb"/>
    <path id="Path_37" data-name="Path 37" d="M1408.089,1451.321c-.146-.114-.039-.264-.058-.4l.588-.119c.229-.039.282.061.234.272s-.081.436-.112.655c-.013.095-.052.141-.148.137Z" transform="translate(-73.3 -123.824)" fill="#2b96e4"/>
    <path id="Path_38" data-name="Path 38" d="M1330.31,1544q0,.678-.006,1.356A1.345,1.345,0,0,1,1330.31,1544Z" transform="translate(0 -211.532)" fill="#e6f8d2"/>
    <path id="Path_39" data-name="Path 39" d="M1637.291,1563.366a.186.186,0,0,1,.055-.185.229.229,0,0,1,.284.087c.167.2.277.145.39-.055a1.025,1.025,0,0,1,.206-.2,1.088,1.088,0,0,1-.243.487c-.138.22-.253.032-.369-.058C1637.521,1563.366,1637.453,1563.151,1637.291,1563.366Z" transform="translate(-289.069 -229.426)" fill="#6db6eb"/>
    <path id="Path_40" data-name="Path 40" d="M1389.288,1435.674c-.256-.172-.447-.47-.816-.421l.049-.168a1.945,1.945,0,0,1,.6.241c.12.086.234.171.225.34Z" transform="translate(-54.912 -109.036)" fill="#91e996"/>
    <path id="Path_41" data-name="Path 41" d="M1363.235,1477.028a8.039,8.039,0,0,0-.744.907c-.015.028-.087.024-.133.036A2.541,2.541,0,0,1,1363.235,1477.028Z" transform="translate(-30.336 -148.508)" fill="#def7c3"/>
    <path id="Path_42" data-name="Path 42" d="M1445.655,1386.12c-.027.131-.151.165-.236.239-.029-.159.237-.234.12-.419C1445.658,1385.948,1445.652,1386.037,1445.655,1386.12Z" transform="translate(-108.502 -62.787)" fill="#92c4ea"/>
    <path id="Path_43" data-name="Path 43" d="M1357.665,1493.02c-.03.175-.167.26-.294.355C1357.395,1493.2,1357.533,1493.11,1357.665,1493.02Z" transform="translate(-25.643 -163.558)" fill="#def7c3"/>
    <path id="Path_44" data-name="Path 44" d="M1402.324,1444.953l.062-.008.124.127.044.168A.415.415,0,0,1,1402.324,1444.953Z" transform="translate(-67.948 -118.315)" fill="#88d0c9"/>
    <path id="Path_45" data-name="Path 45" d="M1443.565,1397.364a4.968,4.968,0,0,0,.2-1.144,7.7,7.7,0,0,1,1.6-3.156c.113-.132.237-.107.363-.137.1,0,.2,0,.294-.006a1.621,1.621,0,0,0,1.591-1.208.96.96,0,0,1,1.851-.026,1.7,1.7,0,0,0,2.013,1.216c.107-.014.214-.02.321-.03a7.571,7.571,0,0,1,1.034,1.692,9.426,9.426,0,0,1,.618,1.854,10.406,10.406,0,0,1,.113,2.4,5.627,5.627,0,0,1-.794,3.018,3.1,3.1,0,0,1-1.676,1.292,7.2,7.2,0,0,1-3.276.194,9.618,9.618,0,0,1-2.334-.532,2.1,2.1,0,0,1-.753-.426.532.532,0,0,1,.021-.143,3.475,3.475,0,0,0,.206-2.48c-.071-.234-.089-.522-.34-.678-.014-.061.01-.135-.064-.174a6.377,6.377,0,0,0-.707-1.146.215.215,0,0,0-.171-.1C1443.7,1397.526,1443.551,1397.478,1443.565,1397.364Zm3.817-2.121c-.04-.186-.185-.147-.326-.172a.269.269,0,0,0,.33.168.337.337,0,0,0,.172.184,2.5,2.5,0,0,0,3.335-.677c.136-.173.232-.4.519-.193-.022-.286-.121-.48-.38-.534a.519.519,0,0,0-.6.187c.271.11.275.113.105.35a2.245,2.245,0,0,1-2.329.828C1447.931,1395.347,1447.657,1395.29,1447.381,1395.243Z" transform="translate(-106.758 -67.544)" fill="#9fe0fe"/>
    <path id="Path_46" data-name="Path 46" d="M1461.258,1527.934c.25.156.269.444.34.678a3.476,3.476,0,0,1-.206,2.48.542.542,0,0,0-.021.143l-.11.012-.013-.076c0-.347.228-.624.291-.961a3.545,3.545,0,0,0-.225-2.058A.375.375,0,0,1,1461.258,1527.934Z" transform="translate(-123.4 -196.416)" fill="#a4e8bc"/>
    <path id="Path_47" data-name="Path 47" d="M1606.347,1439.464a1.208,1.208,0,0,0,.924-.422c0,.313-.073.515-.281.608A.513.513,0,0,1,1606.347,1439.464Z" transform="translate(-259.952 -112.76)" fill="#2a94e9"/>
    <path id="Path_48" data-name="Path 48" d="M1603.065,1430.925a1.287,1.287,0,0,0,.763-.4.106.106,0,0,1,.1-.023.127.127,0,0,1,.031.1.54.54,0,0,1-.325.422A.512.512,0,0,1,1603.065,1430.925Z" transform="translate(-256.863 -104.723)" fill="#2c95ea"/>
    <path id="Path_49" data-name="Path 49" d="M1446.388,1582.906l.013.076a1.449,1.449,0,0,1-.466.816c-.136.156-.182.438-.477.42a6.442,6.442,0,0,0,.705-.954C1446.221,1583.136,1446.235,1582.975,1446.388,1582.906Z" transform="translate(-108.541 -248.149)" fill="#87daa1"/>
    <path id="Path_50" data-name="Path 50" d="M1404.961,1520.314a1.051,1.051,0,0,1,.164.163c.08.123.051.2-.111.2-.3,0-.607,0-.91,0a.36.36,0,0,1-.3-.205c-.147-.217-.286-.44-.427-.661-.2-.31-.26-.311-.453,0-.03.048-.019.12-.088.143a1.441,1.441,0,0,0-.355-1.228l-.049-.112a.367.367,0,0,1,.054,0,.14.14,0,0,0,.086-.188,2.5,2.5,0,0,1-.035-1.041c.028-.17.08-.252.251-.247a.89.89,0,0,1,.292.353c.16.115.29.06.4-.195.182-.409.406-.712.938-.634.34.05.345.009.247.346-.024.083-.039.169-.059.254a9.026,9.026,0,0,1-.551.823.614.614,0,0,0-.046.826c-.133,0-.2-.171-.341-.137-.107.025-.4.619-.33.706.271.332.326.8.676,1.077a1.5,1.5,0,0,0,.709.057C1405.069,1520.622,1405.07,1520.611,1404.961,1520.314Z" transform="translate(-68.049 -185.789)" fill="#4ac5a6"/>
    <path id="Path_51" data-name="Path 51" d="M1377.06,1551.954a1.441,1.441,0,0,1,.355,1.228,1.82,1.82,0,0,1-1.995.838c.39.037.428-.312.585-.532.08-.155.247-.265.236-.466a.335.335,0,0,0,.169-.408c.1.055.169.022.23-.077a4.31,4.31,0,0,0,.368-.576A.423.423,0,0,1,1377.06,1551.954Z" transform="translate(-42.629 -219.02)" fill="#3d8baf"/>
    <path id="Path_52" data-name="Path 52" d="M1354.567,1514.405a1.514,1.514,0,0,1,.937-.648.547.547,0,0,1,.654.334,5.613,5.613,0,0,0,.392.58c.05.071.066.119-.033.151a1.271,1.271,0,0,0-.947,0c-.252.1-.25.22-.054.4s.441.051.631.177c-.1.027-.253-.06-.277.082s.156.058.233.134a.353.353,0,0,0-.015.4c.083.16.016.263-.171.271l-.205.007a1.784,1.784,0,0,1-1.209-.557.363.363,0,0,1-.125-.284c0-.028,0-.062.043-.06.006,0,.013.013.017.021a1.089,1.089,0,0,0,.568.527c.193.107.48.02.476-.154a.813.813,0,0,0-.115-.512c-.218-.216-.144-.368.008-.546a.23.23,0,0,0,.033-.218.407.407,0,0,1,.079-.327c.047-.06.138-.09.047-.183-.072-.073-.125-.031-.2,0C1355.049,1514.091,1354.845,1514.318,1354.567,1514.405Z" transform="translate(-22.824 -183.057)" fill="#214fb8"/>
    <path id="Path_53" data-name="Path 53" d="M1353.469,1517.943c.279-.088.482-.314.76-.408.08-.027.133-.069.2,0,.092.093,0,.123-.047.183a.407.407,0,0,0-.079.327.23.23,0,0,1-.033.218c-.151.178-.226.33-.008.546a.812.812,0,0,1,.115.512c0,.174-.283.261-.476.154a1.089,1.089,0,0,1-.568-.527c0-.008-.011-.021-.017-.021-.044,0-.039.032-.042.06A1.071,1.071,0,0,1,1353.469,1517.943Z" transform="translate(-21.727 -186.595)" fill="#215ec8"/>
    <path id="Path_54" data-name="Path 54" d="M1354.541,1565.912c-.156.22-.2.569-.585.533a2.363,2.363,0,0,1-1.148-.589c-.267-.245-.264-.261.028-.5a.294.294,0,0,1,.174-.1c.155.016.281-.214.458-.042a1.28,1.28,0,0,0,1.039.4C1354.441,1565.748,1354.252,1565.879,1354.541,1565.912Z" transform="translate(-21.165 -231.446)" fill="#2353bc"/>
    <path id="Path_55" data-name="Path 55" d="M1374.532,1513.744c.1-.032.083-.081.032-.151a5.589,5.589,0,0,1-.392-.58.547.547,0,0,0-.654-.334,1.319,1.319,0,0,1,.933.01,1.463,1.463,0,0,1,1.126.631c-.171-.005-.223.077-.251.247a2.5,2.5,0,0,0,.035,1.041.14.14,0,0,1-.086.188c.014-.168,0-.327-.176-.413A1.159,1.159,0,0,0,1374.532,1513.744Z" transform="translate(-40.84 -181.979)" fill="#5ed5ac"/>
    <path id="Path_56" data-name="Path 56" d="M1377.025,1542.814l.205-.007c.187-.008.253-.111.171-.271a.352.352,0,0,1,.015-.4c-.077-.076-.258.016-.233-.134s.182-.055.277-.082a3.723,3.723,0,0,1,.753.242.241.241,0,0,0,.008.045.351.351,0,0,0,.3.307,4.33,4.33,0,0,1-.368.576c-.062.1-.126.132-.23.077C1377.672,1542.923,1377.313,1542.958,1377.025,1542.814Z" transform="translate(-44.139 -209.577)" fill="#2247b2"/>
    <path id="Path_57" data-name="Path 57" d="M1418.348,1554.419c-.35-.279-.405-.745-.676-1.077-.071-.087.223-.681.33-.706.142-.034.208.139.341.137a9.8,9.8,0,0,1,.706,1.06c-.217-.114-.285-.36-.454-.518-.056-.052-.085-.145-.18-.112s-.081.139-.062.2A2.533,2.533,0,0,1,1418.348,1554.419Z" transform="translate(-82.382 -219.658)" fill="#2db5bc"/>
    <path id="Path_58" data-name="Path 58" d="M1429.175,1563.425a2.533,2.533,0,0,0,0-1.013c-.019-.065-.036-.169.063-.2s.124.06.18.112c.169.158.236.4.454.518a.851.851,0,0,1,.245.351c.109.3.108.308-.236.292A1.508,1.508,0,0,1,1429.175,1563.425Z" transform="translate(-93.208 -228.664)" fill="#20abbc"/>
    <path id="Path_59" data-name="Path 59" d="M1414.96,1515.6c.02-.085.035-.171.059-.254.1-.337.094-.3-.247-.346-.532-.078-.756.225-.938.634-.114.255-.243.309-.4.194.241-.042.3-.265.41-.427s.2-.439.4-.479a3.884,3.884,0,0,1,.966-.016c.156.01.131.19.082.258C1415.187,1515.312,1415.137,1515.508,1414.96,1515.6Z" transform="translate(-78.4 -184.135)" fill="#64d08a"/>
    <path id="Path_60" data-name="Path 60" d="M1360.891,1563.583c-.289-.033-.1-.164-.034-.288a1.28,1.28,0,0,1-1.039-.4c-.177-.172-.3.057-.458.042.3-.328.3-.327.621-.045a1.2,1.2,0,0,0,1.146.228C1361.138,1563.318,1360.971,1563.429,1360.891,1563.583Z" transform="translate(-27.515 -229.117)" fill="#255393"/>
    <path id="Path_61" data-name="Path 61" d="M1445.4,1503.891a.215.215,0,0,1,.171.1,6.377,6.377,0,0,1,.707,1.146c-.087.008-.113-.058-.148-.117a6.943,6.943,0,0,0-.676-.939A.217.217,0,0,1,1445.4,1503.891Z" transform="translate(-108.486 -173.789)" fill="#a2ecab"/>
    <path id="Path_62" data-name="Path 62" d="M1381.141,1477l.6-.012C1381.544,1477.138,1381.345,1477.215,1381.141,1477Z" transform="translate(-48.013 -148.473)" fill="#73c7b5"/>
    <path id="Path_63" data-name="Path 63" d="M1550.263,1374.682a9.653,9.653,0,0,0-1.558.3.584.584,0,0,0-.466.566,3.256,3.256,0,0,0,.129,1.221c.016.051.065.118-.01.153a.187.187,0,0,1-.134-.028.884.884,0,0,1-.47-.54,2.546,2.546,0,0,1-.123-1.1c.064-.39.164-.517.549-.609a5.152,5.152,0,0,1,1.691-.033C1549.977,1374.625,1550.081,1374.651,1550.263,1374.682Z" transform="translate(-204.675 -52.079)" fill="#646567"/>
    <path id="Path_64" data-name="Path 64" d="M1459.685,1374.884a9.7,9.7,0,0,0-1.352.266.669.669,0,0,0-.595.749,4.2,4.2,0,0,0,.133,1.045c.012.058.083.132-.011.18-.06.031-.111-.018-.161-.047a1.237,1.237,0,0,1-.544-1.02,3.3,3.3,0,0,1-.009-.411c0-.594.214-.822.814-.854A6.419,6.419,0,0,1,1459.685,1374.884Z" transform="translate(-119.54 -52.277)" fill="#646566"/>
    <path id="Path_65" data-name="Path 65" d="M1432.519,1438.99c-.529.447-.82.346-.965-.316A1.306,1.306,0,0,0,1432.519,1438.99Z" transform="translate(-95.456 -112.414)" fill="#2b95e9"/>
    <path id="Path_66" data-name="Path 66" d="M1435.581,1428.9a1.587,1.587,0,0,0,.906.372.645.645,0,0,1-.64.144A.552.552,0,0,1,1435.581,1428.9Z" transform="translate(-99.246 -103.212)" fill="#2c95e9"/>
    <path id="Path_67" data-name="Path 67" d="M1508.365,1443.168c.275.047.549.1.826.14a2.245,2.245,0,0,0,2.329-.828c.17-.237.166-.24-.105-.35a.519.519,0,0,1,.6-.187c.258.054.358.248.38.534-.287-.2-.383.02-.519.193a2.5,2.5,0,0,1-3.334.677.337.337,0,0,1-.172-.184Z" transform="translate(-167.742 -115.469)" fill="#171d21"/>
    <path id="Path_68" data-name="Path 68" d="M1503.162,1460.346a.269.269,0,0,1-.33-.167c.141.025.286-.014.326.172Z" transform="translate(-162.535 -132.652)" fill="#689eb5"/>
    <path id="Path_69" data-name="Path 69" d="M1397.208,1543.192a.252.252,0,0,1-.007-.045c.129.007.2-.046.186-.183.179.087.19.245.176.413a.407.407,0,0,0-.054,0C1397.406,1543.323,1397.335,1543.214,1397.208,1543.192Z" transform="translate(-63.127 -210.56)" fill="#90e28a"/>
    <path id="Path_70" data-name="Path 70" d="M1397.33,1546.835c.126.021.2.131.3.189l.049.112a.4.4,0,0,0-.052.006A.351.351,0,0,1,1397.33,1546.835Z" transform="translate(-63.248 -214.203)" fill="#2c557c"/>
    <path id="Path_71" data-name="Path 71" d="M1373.026,1531.306c.013.137-.057.19-.186.183a3.724,3.724,0,0,0-.753-.242c-.19-.126-.443,0-.631-.177s-.2-.3.054-.4a1.271,1.271,0,0,1,.947,0A1.158,1.158,0,0,1,1373.026,1531.306Z" transform="translate(-38.765 -198.902)" fill="#98e372"/>
  </g>
</svg>
