<svg xmlns="http://www.w3.org/2000/svg" width="24" height="24" viewBox="0 0 24 24">
  <path id="casino-leisure-roulette-game-svgrepo-com" d="M24.12,8.44h0a13.3,13.3,0,0,0-2.56-3.92h0a11.154,11.154,0,0,0-3.84-2.56h0a12.167,12.167,0,0,0-9.28-.08h0A12.094,12.094,0,0,0,4.52,4.52h0A11.154,11.154,0,0,0,1.96,8.36h0A11.76,11.76,0,0,0,1,13a12.5,12.5,0,0,0,.88,4.56h0A14.007,14.007,0,0,0,4.44,21.4h0a11.154,11.154,0,0,0,3.84,2.56h0A10.943,10.943,0,0,0,13,25a12.183,12.183,0,0,0,4.56-.88h0a14.007,14.007,0,0,0,3.84-2.56h0a11.154,11.154,0,0,0,2.56-3.84h0A11.2,11.2,0,0,0,25,13,12.5,12.5,0,0,0,24.12,8.44Zm-1.84-.16-2.24.88a7.25,7.25,0,0,0-.88-1.28L20.84,6.2A12.079,12.079,0,0,1,22.28,8.28ZM17.72,3.72A11.618,11.618,0,0,1,19.8,5.08L18.12,6.76a7.25,7.25,0,0,0-1.28-.88ZM13.8,2.68a10.626,10.626,0,0,1,2.4.48L15.24,5.4a8.5,8.5,0,0,0-1.52-.32V2.68Zm-1.6,0v2.4a10.288,10.288,0,0,0-1.52.32L9.8,3.08A7.542,7.542,0,0,1,12.2,2.68ZM8.28,3.72l.88,2.24a7.25,7.25,0,0,0-1.28.88L6.28,5.08A12.509,12.509,0,0,1,8.28,3.72ZM5.08,6.28,6.76,7.96a7.25,7.25,0,0,0-.88,1.28L3.64,8.36A15.589,15.589,0,0,1,5.08,6.28Zm-2,3.52,2.24.96A8.5,8.5,0,0,0,5,12.28H2.6A10.493,10.493,0,0,1,3.08,9.8Zm-.4,4h2.4a10.288,10.288,0,0,0,.32,1.52l-2.32.88A7.542,7.542,0,0,1,2.68,13.8Zm1.04,3.92,2.24-.88a7.25,7.25,0,0,0,.88,1.28L5.16,19.8A12.079,12.079,0,0,1,3.72,17.72Zm4.56,4.56A11.618,11.618,0,0,1,6.2,20.92l1.68-1.68a7.25,7.25,0,0,0,1.28.88Zm3.92,1.04a10.626,10.626,0,0,1-2.4-.48l.96-2.24a8.5,8.5,0,0,0,1.52.32v2.4ZM11.4,17a1.549,1.549,0,0,1,.8-1.36V14.36a1.869,1.869,0,0,1-.56-.56H10.36A1.549,1.549,0,0,1,9,14.6a1.6,1.6,0,1,1,0-3.2,1.549,1.549,0,0,1,1.36.8h1.28a1.869,1.869,0,0,1,.56-.56V10.36A1.549,1.549,0,0,1,11.4,9a1.6,1.6,0,0,1,3.2,0,1.549,1.549,0,0,1-.8,1.36v1.28a1.869,1.869,0,0,1,.56.56h1.28A1.549,1.549,0,0,1,17,11.4a1.6,1.6,0,1,1,0,3.2,1.549,1.549,0,0,1-1.36-.8H14.36a1.869,1.869,0,0,1-.56.56v1.28A1.549,1.549,0,0,1,14.6,17a1.6,1.6,0,0,1-3.2,0Zm2.4,6.32v-2.4a10.288,10.288,0,0,0,1.52-.32l.96,2.24A6.519,6.519,0,0,1,13.8,23.32Zm3.92-1.04-.88-2.24a7.25,7.25,0,0,0,1.28-.88l1.68,1.68A12.079,12.079,0,0,1,17.72,22.28Zm3.2-2.56-1.68-1.68a7.25,7.25,0,0,0,.88-1.28l2.24.88A15.588,15.588,0,0,1,20.92,19.72Zm2-3.52-2.24-.96A8.5,8.5,0,0,0,21,13.72h2.4A10.493,10.493,0,0,1,22.92,16.2Zm-2-4a10.288,10.288,0,0,0-.32-1.52l2.24-.96a12.756,12.756,0,0,1,.48,2.4h-2.4Z" transform="translate(-1 -1)" fill="#777"/>
</svg>
