<svg xmlns="http://www.w3.org/2000/svg" width="24" height="24.421" viewBox="0 0 24 24.421">
  <path id="coin-svgrepo-com-2" d="M13.763,0a9.449,9.449,0,0,0-1.269.088A9.425,9.425,0,0,0,11.237,0,10.165,10.165,0,0,0,3.38,3.9a.4.4,0,0,0-.05.06,12.4,12.4,0,0,0-1.6,2.579A.475.475,0,0,0,1.7,6.6,13.141,13.141,0,0,0,.963,8.665.422.422,0,0,0,.93,8.8,13.731,13.731,0,0,0,.5,12.211,13.54,13.54,0,0,0,1.52,17.4a.406.406,0,0,0,.019.049A12.544,12.544,0,0,0,3,20.035a.412.412,0,0,0,.045.059,11.477,11.477,0,0,0,2,2.081.408.408,0,0,0,.072.059,9.809,9.809,0,0,0,6.122,2.188,9.425,9.425,0,0,0,1.257-.088,9.449,9.449,0,0,0,1.269.088c5.92,0,10.737-5.477,10.737-12.211S19.684,0,13.763,0Zm7.249,8.506a.42.42,0,0,1,.535.262c.093.272.176.553.247.834a.421.421,0,0,1-.306.511.414.414,0,0,1-.1.013.421.421,0,0,1-.408-.318c-.065-.259-.141-.517-.227-.766A.421.421,0,0,1,21.012,8.506ZM2.575,17.684H4.17c.066.149.134.3.205.443.031.063.063.125.095.187q.129.254.269.5c.035.061.068.123.1.184.075.126.152.249.231.372H3.563A11.666,11.666,0,0,1,2.575,17.684ZM2.381,7.158H3.993q-.111.276-.21.559c-.018.052-.037.1-.054.156-.061.181-.117.364-.171.548H1.913A12.169,12.169,0,0,1,2.381,7.158Zm1.5-2.526H5.354c-.051.074-.1.147-.153.222q-.186.28-.359.571c-.035.06-.069.123-.1.184q-.14.246-.269.5c-.032.062-.064.124-.095.187l-.011.021H2.786A11.459,11.459,0,0,1,3.879,4.632Zm6.845-.325a.421.421,0,1,1-.382-.75,7.785,7.785,0,0,1,.807-.356.421.421,0,0,1,.3.789A6.983,6.983,0,0,0,10.724,4.307Zm.2,16.382a.422.422,0,0,1-.566.185,8.028,8.028,0,0,1-.762-.441.421.421,0,1,1,.461-.7,7.084,7.084,0,0,0,.682.395A.421.421,0,0,1,10.924,20.688Zm-4.89-6.4a.421.421,0,0,1,.51.307c.064.258.14.516.226.766a.421.421,0,0,1-.263.534.415.415,0,0,1-.136.023.421.421,0,0,1-.4-.285c-.093-.273-.176-.554-.245-.835A.421.421,0,0,1,6.034,14.291Zm-.622-2.071v-.009c0-.287.011-.576.034-.858a.421.421,0,0,1,.84.067c-.021.26-.031.526-.031.791a.425.425,0,0,1-.421.426A.417.417,0,0,1,5.412,12.219ZM6.764,9.074a.421.421,0,0,1-.4.286.433.433,0,0,1-.135-.022A.422.422,0,0,1,5.967,8.8c.093-.274.2-.547.315-.812a.421.421,0,0,1,.772.337C6.947,8.572,6.85,8.823,6.764,9.074Zm.479,8.315a.421.421,0,0,1,.584.114c.149.22.308.435.475.638a.421.421,0,1,1-.651.534c-.183-.223-.358-.459-.522-.7A.422.422,0,0,1,7.243,17.389ZM8.291,6.295a.421.421,0,0,1-.652-.533c.186-.228.383-.446.586-.651a.421.421,0,1,1,.6.594C8.639,5.89,8.46,6.088,8.291,6.295ZM1.342,12.211c0-.284.015-.563.033-.842H3.054c0,.007,0,.013,0,.02-.016.272-.027.545-.027.822,0,.141.005.281.009.421H1.359C1.354,12.491,1.342,12.352,1.342,12.211Zm1.741,1.263c.016.177.037.353.059.528,0,.013,0,.026,0,.039.031.234.069.466.112.7H1.6c-.082-.413-.147-.834-.189-1.263Zm.261-4.211c-.011.05-.02.1-.03.15s-.023.111-.034.166c-.051.264-.1.531-.133.8,0,.013,0,.026,0,.039-.005.036-.008.072-.013.107H1.46a12.717,12.717,0,0,1,.222-1.263Zm.1,6.316c.013.051.025.1.039.155.005.019.009.038.014.056.069.256.147.509.231.758.018.053.036.1.054.156s.031.093.048.138H2.209a12.342,12.342,0,0,1-.414-1.263Zm9.067,5.595a.424.424,0,0,1,.468-.368,6.63,6.63,0,0,0,.782.046.437.437,0,0,1,.439.421.406.406,0,0,1-.4.421h-.036a7.511,7.511,0,0,1-.883-.052A.421.421,0,0,1,12.513,21.174ZM14.578,3.616a.387.387,0,0,1-.049,0,6.656,6.656,0,0,0-.766-.044.429.429,0,0,1-.43-.421.413.413,0,0,1,.412-.421h.018a7.481,7.481,0,0,1,.863.05.421.421,0,0,1-.048.839ZM9.317,1.1q-.209.109-.413.227c-.076.044-.153.087-.228.133-.117.072-.231.147-.344.224H7.521a8.857,8.857,0,0,1,1.928-.656C9.4,1.051,9.361,1.077,9.317,1.1ZM6.071,2.526H7.234c-.1.091-.209.183-.31.279-.085.08-.167.163-.249.246s-.166.169-.247.255-.156.165-.232.251-.132.155-.2.232H4.609A10.185,10.185,0,0,1,6.071,2.526ZM4.215,20.211H5.66c.048.062.095.125.144.186q.191.24.392.468c.075.085.154.168.232.251s.164.172.248.256c.034.034.066.07.1.1H5.509A10.43,10.43,0,0,1,4.215,20.211Zm5.233,3.182a8.992,8.992,0,0,1-2.724-1.077H7.743c.054.042.109.081.164.121.087.065.174.13.263.192q.248.173.506.331c.075.046.152.089.228.133q.2.118.413.227C9.361,23.344,9.4,23.371,9.449,23.393ZM17.2,20.856a7.775,7.775,0,0,1-.806.357.421.421,0,1,1-.3-.788,6.964,6.964,0,0,0,.718-.319.421.421,0,0,1,.385.749Zm.835-16.295a.421.421,0,0,1-.583.123,7.156,7.156,0,0,0-.683-.393.421.421,0,1,1,.379-.752,8.143,8.143,0,0,1,.763.439A.421.421,0,0,1,18.037,4.561ZM19.9,18.645c-.186.228-.382.448-.585.652a.421.421,0,0,1-.6-.593c.183-.184.361-.383.529-.59a.421.421,0,1,1,.653.531Zm.139-11.555a.421.421,0,0,1-.349-.185c-.149-.22-.309-.434-.476-.637a.421.421,0,0,1,.65-.536c.184.223.36.458.523.7a.421.421,0,0,1-.349.657Zm1.527,8.51c-.093.275-.2.549-.313.813a.421.421,0,0,1-.772-.336c.105-.242.2-.493.287-.745a.421.421,0,0,1,.8.268Zm.517-2.55a.421.421,0,0,1-.419.389H21.63a.421.421,0,0,1-.387-.452c.02-.255.03-.516.03-.774a.433.433,0,0,1,.421-.435.41.41,0,0,1,.421.407v.027C22.114,12.491,22.1,12.773,22.082,13.05Z" transform="translate(-0.5)" fill="#f0f0f0"/>
</svg>
