<svg xmlns="http://www.w3.org/2000/svg" width="24" height="18.921" viewBox="0 0 24 18.921">
  <path id="fi-sr-gamepad" d="M22.284,56.8A4.817,4.817,0,0,0,18,54.314H6.151A4.817,4.817,0,0,0,1.869,56.8,13.356,13.356,0,0,0,.176,63.277c0,5.477,2.191,9.959,4.979,9.959,1.494,0,2.689-1.394,3.585-4.282a.989.989,0,0,1,1-.7h4.88a1.2,1.2,0,0,1,1,.7c.9,2.888,2.091,4.282,3.585,4.282,2.788,0,4.979-4.481,4.979-9.959A16.234,16.234,0,0,0,22.284,56.8ZM9.139,62.281h-1v1a.941.941,0,0,1-1,1,.941.941,0,0,1-1-1v-1h-1a1,1,0,1,1,0-1.992h1v-1a.941.941,0,0,1,1-1,.941.941,0,0,1,1,1v1h1a1,1,0,1,1,0,1.992Zm6.573,1.992a1.494,1.494,0,1,1,1.494-1.494A1.606,1.606,0,0,1,15.711,64.272ZM18.6,61.285a1.494,1.494,0,0,1,0-2.988,1.606,1.606,0,0,1,1.494,1.494A1.532,1.532,0,0,1,18.6,61.285Z" transform="translate(-0.176 -54.314)" fill="#f0f0f0"/>
</svg>
