<svg xmlns="http://www.w3.org/2000/svg" width="24" height="23.985" viewBox="0 0 24 23.985">
  <g id="home" transform="translate(0 -0.16)">
    <path id="Path_4" data-name="Path 4" d="M195,319.841a3,3,0,0,1,3,3v6h-6v-6A3,3,0,0,1,195,319.841Z" transform="translate(-183 -304.696)" fill="#f0f0f0"/>
    <g id="Group_2" data-name="Group 2" transform="translate(0 0.16)">
      <path id="Path_5" data-name="Path 5" d="M7,18.145v6H3a3,3,0,0,1-3-3V12.024a2,2,0,0,1,.563-1.392l8.5-9.187a4,4,0,0,1,5.652-.223q.116.107.223.223l8.483,9.184A2,2,0,0,1,24,12.039v9.106a3,3,0,0,1-3,3H17v-6a5,5,0,1,0-10,0Z" transform="translate(0 -0.16)" fill="#f0f0f0"/>
      <path id="Path_6" data-name="Path 6" d="M195,319.841a3,3,0,0,1,3,3v6h-6v-6A3,3,0,0,1,195,319.841Z" transform="translate(-183 -304.856)" fill="#f0f0f0"/>
    </g>
  </g>
</svg>
