<svg xmlns="http://www.w3.org/2000/svg" width="24" height="25.412" viewBox="0 0 24 25.412">
  <g id="icons" transform="translate(0)">
    <g id="ui-gambling-website-lined-icnos-casinoshunter">
      <g id="_1" data-name="1">
        <path id="slot" d="M433.333,292A2.637,2.637,0,0,1,436,294.606h0v.651h3.667a2.637,2.637,0,0,1,2.667,2.606v6.516h2v-4.02a2,2,0,1,1,1.334,0v4.665s0,0,0,.007a.652.652,0,0,1-.652.652h-2.682v9.123a2.637,2.637,0,0,1-2.667,2.606h-14A2.637,2.637,0,0,1,423,314.805V297.864a2.637,2.637,0,0,1,2.667-2.606h3.667v-.651a2.633,2.633,0,0,1,2.525-2.6l.142,0Zm5.015,17.593h-4.03a.652.652,0,0,0,0,1.3h4.03a.652.652,0,0,0,0-1.3Zm-1.015-11.077H428a1.978,1.978,0,0,0-2,1.955h0v4.561a1.978,1.978,0,0,0,2,1.955h9.333a1.978,1.978,0,0,0,2-1.955h0v-4.561a1.978,1.978,0,0,0-2-1.955Zm-7.333,1.3v5.85q0,.008,0,.015h-2a.659.659,0,0,1-.667-.652h0v-4.561a.659.659,0,0,1,.667-.652h2Zm4,0v5.85c0,.005,0,.01,0,.015h-2.668v-5.849q0-.008,0-.016Zm3.333,0a.659.659,0,0,1,.667.652h0v4.561a.659.659,0,0,1-.667.652h-2v-5.849q0-.008,0-.016Z" transform="translate(-423 -292)" fill="#777"/>
      </g>
    </g>
  </g>
</svg>
