<svg xmlns="http://www.w3.org/2000/svg" width="24" height="24" viewBox="0 0 24 24">
  <path id="Icon_ionic-ios-help-buoy" data-name="Icon ionic-ios-help-buoy" d="M15.375,3.375a12,12,0,1,0,12,12A12,12,0,0,0,15.375,3.375Zm3.15,2.1a10.411,10.411,0,0,1,6.75,6.75l-5.123.346A5.539,5.539,0,0,0,18.2,10.61ZM8.031,8.031a10.31,10.31,0,0,1,4.194-2.556l.329,5.135A5.667,5.667,0,0,0,10.6,12.565l-5.129-.34A10.425,10.425,0,0,1,8.031,8.031Zm4.194,17.244a10.411,10.411,0,0,1-6.75-6.75L10.61,18.2a5.586,5.586,0,0,0,1.95,1.95Zm3.15-5.977A3.923,3.923,0,1,1,19.3,15.375,3.927,3.927,0,0,1,15.375,19.3Zm7.344,3.421a10.349,10.349,0,0,1-4.194,2.556l-.34-5.129a5.557,5.557,0,0,0,1.967-1.973l5.123.346A10.331,10.331,0,0,1,22.719,22.719Z" transform="translate(-3.375 -3.375)" fill="#f0f0f0"/>
</svg>
