<svg xmlns="http://www.w3.org/2000/svg" width="24" height="24.007" viewBox="0 0 24 24.007">
  <path id="Icon_awesome-rocket" data-name="Icon awesome-rocket" d="M23.682.9A.745.745,0,0,0,23.11.324,17.016,17.016,0,0,0,19.242,0C14.4,0,11.5,2.588,9.335,6H4.45A2.251,2.251,0,0,0,2.44,7.244L.122,11.876A1.125,1.125,0,0,0,1.13,13.5H6L4.942,14.557a1.5,1.5,0,0,0,0,2.122l2.387,2.387a1.5,1.5,0,0,0,2.122,0L10.5,18.012v4.869a1.125,1.125,0,0,0,1.627,1.008l4.628-2.316A2.246,2.246,0,0,0,18,19.562v-4.9c3.4-2.171,6-5.083,6-9.9A16.632,16.632,0,0,0,23.682.9ZM18.006,7.877A1.876,1.876,0,1,1,19.882,6a1.876,1.876,0,0,1-1.876,1.876Z" transform="translate(-0.004)" fill="#777"/>
</svg>
