<svg xmlns="http://www.w3.org/2000/svg" xmlns:xlink="http://www.w3.org/1999/xlink" width="19.326" height="14.897" viewBox="0 0 19.326 14.897">
  <defs>
    <linearGradient id="linear-gradient" x1="0.5" x2="0.5" y2="1" gradientUnits="objectBoundingBox">
      <stop offset="0" stop-color="#2366d3"/>
      <stop offset="0.498" stop-color="#069cc7"/>
      <stop offset="1" stop-color="#62d8ac"/>
    </linearGradient>
  </defs>
  <g id="Layer_1-2" transform="translate(0.01 -24.737)">
    <g id="_1kIuMS" transform="translate(-0.01 24.737)">
      <path id="Path_13" data-name="Path 13" d="M17.249,118.974c-.628,0-1.256,0-1.884,0a.348.348,0,0,1-.323-.181c-.794-1.211-1.593-2.419-2.386-3.63-.083-.127-.116-.1-.187.008-.463.71-.922,1.423-1.4,2.123a5.378,5.378,0,0,1-2.7,1.984,6.874,6.874,0,0,1-4.834-.073,7.519,7.519,0,0,1-2.91-1.949,7.885,7.885,0,0,1-.586-.693c-.07-.094-.069-.158.031-.232q1.292-.961,2.58-1.93c.111-.084.153-.01.209.062A4.528,4.528,0,0,0,4.2,115.67a4.086,4.086,0,0,0,3.114.393,1.265,1.265,0,0,0,.427-.212.8.8,0,0,0,.123-1.2A2.517,2.517,0,0,0,6.7,114a14.724,14.724,0,0,0-1.454-.306,11.526,11.526,0,0,1-2.908-.909A4.138,4.138,0,0,1,.7,111.4a3.123,3.123,0,0,1-.386-2.779,5.106,5.106,0,0,1,2.505-2.985,6.517,6.517,0,0,1,2.711-.831,8.179,8.179,0,0,1,1.612.061,6.956,6.956,0,0,1,3.708,1.59,7.814,7.814,0,0,1,1.459,1.823c.253.375.245.387.491.016q.95-1.432,1.89-2.869a.34.34,0,0,1,.322-.177c1.251.006,2.5,0,3.751,0,.059,0,.137-.027.172.026s-.027.122-.062.174q-1.144,1.738-2.292,3.474c-.615.933-1.225,1.869-1.843,2.8-.067.1-.031.171.023.253.4.607.8,1.216,1.2,1.822q.8,1.206,1.595,2.411.846,1.282,1.69,2.567c.031.047.1.1.059.158s-.111.034-.17.034q-.942,0-1.884,0Zm-11.086-10.7a5.294,5.294,0,0,0-1.323.222,1.847,1.847,0,0,0-.673.343.583.583,0,0,0,.1,1.025,2.624,2.624,0,0,0,.4.145,10.9,10.9,0,0,0,1.522.3,7.523,7.523,0,0,1,2.26.652,6.552,6.552,0,0,1,1.656,1.135c.035.034.064.1.136.048a.343.343,0,0,0,.092-.5c-.4-.606-.8-1.211-1.2-1.82a3.254,3.254,0,0,0-.747-.871,3.732,3.732,0,0,0-2.228-.687Z" transform="translate(0.01 -104.786)" fill="url(#linear-gradient)"/>
    </g>
  </g>
</svg>
