<svg xmlns="http://www.w3.org/2000/svg" width="17.456" height="17.455" viewBox="0 0 17.456 17.455">
  <path id="megaphone" d="M16.727,11.636a.727.727,0,0,1-.324-.076l-1.455-.727a.728.728,0,1,1,.65-1.3l1.455.727a.727.727,0,0,1-.326,1.378ZM15.6,5.018l1.455-.727a.728.728,0,0,0-.65-1.3l-1.455.727a.728.728,0,1,0,.65,1.3Zm1.857,2.255a.727.727,0,0,0-.727-.727H15.273a.727.727,0,1,0,0,1.455h1.455A.727.727,0,0,0,17.455,7.273Zm-4.364,6.545V.727a.727.727,0,0,0-1.455,0c0,2.145-1.879,2.909-3.636,2.909H2.909A2.909,2.909,0,0,0,0,6.545V8a2.909,2.909,0,0,0,2.909,2.909H8c1.758,0,3.636.764,3.636,2.909a.727.727,0,0,0,1.455,0ZM5.953,12.364H2.909A4.364,4.364,0,0,1,1.9,12.242L3.722,16.3A1.943,1.943,0,0,0,5.5,17.455a1.791,1.791,0,0,0,1.631-2.525Z" fill="#f0f0f0"/>
</svg>
