<svg xmlns="http://www.w3.org/2000/svg" width="19.33" height="19.33" viewBox="0 0 19.33 19.33">
  <g id="usd-coin-usdc-seeklogo.com" transform="translate(-547.6 -135.1)">
    <path id="Path_23" data-name="Path 23" d="M557.265,154.43a9.665,9.665,0,1,0-9.665-9.665A9.641,9.641,0,0,0,557.265,154.43Z" fill="#2775ca"/>
    <path id="Path_24" data-name="Path 24" d="M1269.795,649.682c0-1.409-.846-1.892-2.537-2.094-1.208-.161-1.45-.483-1.45-1.047s.4-.926,1.208-.926a1.192,1.192,0,0,1,1.329.846.3.3,0,0,0,.282.2h.645a.275.275,0,0,0,.282-.282v-.041a2.011,2.011,0,0,0-1.812-1.651v-.967c0-.161-.121-.282-.322-.322h-.6c-.161,0-.282.121-.322.322v.926a2.054,2.054,0,0,0-1.974,1.974c0,1.329.805,1.853,2.5,2.054,1.128.2,1.49.443,1.49,1.087s-.563,1.087-1.329,1.087c-1.047,0-1.409-.443-1.53-1.047a.294.294,0,0,0-.282-.242h-.684a.275.275,0,0,0-.282.282v.041a2.249,2.249,0,0,0,2.134,1.933v.966c0,.161.121.282.322.322h.6c.161,0,.282-.121.322-.322v-.966a2.207,2.207,0,0,0,2.013-2.135Z" transform="translate(-709.872 -503.387)" fill="#fff"/>
    <path id="Path_25" data-name="Path 25" d="M800.753,439.4a6.026,6.026,0,0,1,0-11.316.4.4,0,0,0,.242-.4v-.563a.3.3,0,0,0-.242-.322.241.241,0,0,0-.161.041,7.247,7.247,0,0,0,0,13.813.245.245,0,0,0,.362-.161c.041-.041.041-.08.041-.161v-.563A.537.537,0,0,0,800.753,439.4Zm4.268-12.565a.245.245,0,0,0-.362.161c-.041.041-.041.08-.041.161v.563a.535.535,0,0,0,.242.4,6.026,6.026,0,0,1,0,11.316.4.4,0,0,0-.242.4v.564a.3.3,0,0,0,.242.322.242.242,0,0,0,.161-.041,7.278,7.278,0,0,0,0-13.853Z" transform="translate(-245.542 -288.881)" fill="#fff"/>
  </g>
</svg>
